<?xml version="1.0" encoding="UTF-8"?>
<svg id="Layer_1" data-name="Layer 1" xmlns="http://www.w3.org/2000/svg" xmlns:xlink="http://www.w3.org/1999/xlink" viewBox="0 0 207.6 92.52">
  <defs>
    <style>
      .cls-1 {
        fill: #4a53a4;
      }

      .cls-1, .cls-2, .cls-3, .cls-4, .cls-5 {
        fill-rule: evenodd;
      }

      .cls-6 {
        fill: #fff;
      }

      .cls-2 {
        fill: #8751a0;
      }

      .cls-3 {
        fill: #fec010;
      }

      .cls-4 {
        fill: #ea0a8c;
      }

      .cls-7, .cls-8 {
        fill: none;
      }

      .cls-8 {
        clip-path: url(#clippath);
      }

      .cls-5 {
        fill: #00a64f;
      }
    </style>
    <clipPath id="clippath">
      <rect class="cls-7" width="207.6" height="92.52"/>
    </clipPath>
  </defs>
  <polygon class="cls-1" points="30.72 24.96 36.48 24.96 36.48 53.28 30.72 53.28 30.72 24.96 30.72 24.96"/>
  <polygon class="cls-2" points="34.8 24.96 45 24.96 45 53.28 34.8 53.28 34.8 24.96 34.8 24.96"/>
  <polygon class="cls-4" points="44.76 24.96 50.52 24.96 50.52 53.28 44.76 53.28 44.76 24.96 44.76 24.96"/>
  <polygon class="cls-5" points="50.16 24.96 58.92 24.96 58.92 53.28 50.16 53.28 50.16 24.96 50.16 24.96"/>
  <polygon class="cls-3" points="62.4 24.96 69.48 24.96 69.48 53.28 62.4 53.28 62.4 24.96 62.4 24.96"/>
  <polygon class="cls-1" points="113.28 24.96 120.6 24.96 120.6 53.28 113.28 53.28 113.28 24.96 113.28 24.96"/>
  <polygon class="cls-2" points="120.24 24.96 127.68 24.96 127.68 53.28 120.24 53.28 120.24 24.96 120.24 24.96"/>
  <polygon class="cls-4" points="126.84 24.96 134.04 24.96 134.04 53.28 126.84 53.28 126.84 24.96 126.84 24.96"/>
  <polygon class="cls-5" points="131.52 24.96 140.64 24.96 140.64 53.28 131.52 53.28 131.52 24.96 131.52 24.96"/>
  <polygon class="cls-3" points="138.48 24.96 147.96 24.96 147.96 53.28 138.48 53.28 138.48 24.96 138.48 24.96"/>
  <polygon class="cls-1" points="69 24.96 79.2 24.96 79.2 53.28 69 53.28 69 24.96 69 24.96"/>
  <polygon class="cls-2" points="78.84 24.96 86.88 24.96 86.88 53.28 78.84 53.28 78.84 24.96 78.84 24.96"/>
  <polygon class="cls-5" points="96 24.96 106.56 24.96 106.56 53.28 96 53.28 96 24.96 96 24.96"/>
  <polygon class="cls-4" points="86.4 24.96 96.36 24.96 96.36 53.28 86.4 53.28 86.4 24.96 86.4 24.96"/>
  <polygon class="cls-1" points="147.6 24.96 156.36 24.96 156.36 53.28 147.6 53.28 147.6 24.96 147.6 24.96"/>
  <polygon class="cls-3" points="103.68 24.96 113.52 24.96 113.52 53.28 103.68 53.28 103.68 24.96 103.68 24.96"/>
  <polygon class="cls-2" points="154.44 24.96 162.12 24.96 162.12 53.28 154.44 53.28 154.44 24.96 154.44 24.96"/>
  <polygon class="cls-4" points="161.52 24.96 170.28 24.96 170.28 53.28 161.52 53.28 161.52 24.96 161.52 24.96"/>
  <polygon class="cls-5" points="169.8 24.96 178.8 24.96 178.8 53.28 169.8 53.28 169.8 24.96 169.8 24.96"/>
  <g class="cls-8">
    <g>
      <path class="cls-6" d="m39.83,43.72c.04,1.58.09,2.29.09,3.08,0,5.24-1.94,7.79-5.95,7.79s-5.77-2.38-5.77-7.05v-16.16c0-4.67,1.94-7.05,5.77-7.05s5.95,2.55,5.95,7.66c0,.71,0,1.19-.09,2.33h-4.1c.09-.92.09-1.32.09-2.03,0-3.26-.4-4.14-1.85-4.14-1.32,0-1.67.66-1.67,3.21v16.16c0,2.55.35,3.21,1.67,3.21,1.45,0,1.85-.88,1.85-4.01,0-.88-.04-1.67-.09-3.04h4.1Z"/>
      <path class="cls-6" d="m47.23,24.78c3.3,0,4.8.53,5.99,2.07,1.06,1.37,1.54,3.35,1.54,6.12,0,3.66-.4,4.98-2.07,7.13l2.86,14.05h-4.4l-2.38-12.64c-.71.13-.84.13-1.45.18v12.46h-4.1v-29.37h4.01Zm.66,12.77c1.32,0,2.07-.31,2.47-1.06.31-.57.4-1.28.4-3.96,0-3.17-.57-3.92-2.86-3.92h-.57v8.94h.57Z"/>
      <path class="cls-6" d="m62.78,54.15h-4.1v-29.37h4.1v29.37Z"/>
      <path class="cls-6" d="m69.73,54.15h-3.96l4.01-29.37h5.29l3.83,29.37h-4.01l-.75-6.61h-3.7l-.71,6.61Zm2.55-24.04l-1.41,13.61h2.82l-1.41-13.61Z"/>
      <path class="cls-6" d="m83.52,28.61h-3.83v-3.83h11.93v3.83h-4.01v25.54h-4.1v-25.54Z"/>
      <path class="cls-6" d="m98.4,54.15h-4.1v-29.37h4.1v29.37Z"/>
      <path class="cls-6" d="m105.58,54.15l-4.45-29.37h4.05l2.47,17.88,2.33-17.88h3.92l-4.27,29.37h-4.05Z"/>
      <path class="cls-6" d="m120.77,54.15h-4.09v-29.37h4.09v29.37Z"/>
      <path class="cls-6" d="m128.61,24.78c2.86,0,4.18.4,5.42,1.63,1.23,1.19,1.85,2.95,1.85,5.15v15.81c0,2.2-.62,3.96-1.85,5.15-1.23,1.23-2.55,1.63-5.42,1.63h-4.36v-29.37h4.36Zm.26,25.54c2.25,0,2.91-.66,2.91-2.95v-15.81c0-2.25-.71-2.95-2.91-2.95h-.53v21.71h.53Z"/>
      <path class="cls-6" d="m142.66,54.15h-3.96l4.01-29.37h5.28l3.83,29.37h-4.01l-.75-6.61h-3.7l-.7,6.61Zm2.55-24.04l-1.41,13.61h2.82l-1.41-13.61Z"/>
      <path class="cls-6" d="m159.13,24.78c2.86,0,4.18.4,5.42,1.63,1.23,1.19,1.85,2.95,1.85,5.15v15.81c0,2.2-.62,3.96-1.85,5.15-1.23,1.23-2.55,1.63-5.42,1.63h-4.36v-29.37h4.36Zm.26,25.54c2.25,0,2.91-.66,2.91-2.95v-15.81c0-2.25-.71-2.95-2.91-2.95h-.53v21.71h.53Z"/>
      <path class="cls-6" d="m179.79,24.78v3.83h-5.81v8.23h4.05v3.83h-4.05v9.64h6.17v3.83h-10.26v-29.37h9.91Z"/>
    </g>
  </g>
</svg>